<mxfile host="65bd71144e">
    <diagram id="n9vhno1qFf0XFuCSfTiH" name="Fuyu">
        <mxGraphModel dx="1507" dy="1673" grid="1" gridSize="10" guides="1" tooltips="1" connect="1" arrows="1" fold="1" page="1" pageScale="1" pageWidth="900" pageHeight="1600" background="#ffffff" math="0" shadow="0">
            <root>
                <mxCell id="0"/>
                <mxCell id="1" parent="0"/>
                <mxCell id="3" value="&lt;b&gt;Weather Inputs&lt;/b&gt;&lt;div&gt;(B, lat, lon, features, time)&lt;/div&gt;" style="rounded=0;whiteSpace=wrap;html=1;fillColor=#dae8fc;strokeColor=#6c8ebf;strokeWidth=2;" parent="1" vertex="1">
                    <mxGeometry x="230" y="205" width="150" height="60" as="geometry"/>
                </mxCell>
                <mxCell id="4" value="&lt;b&gt;Text Inputs&lt;/b&gt;&lt;div&gt;(B, n_tok)&lt;/div&gt;" style="rounded=0;whiteSpace=wrap;html=1;fillColor=#fff2cc;strokeColor=#d6b656;strokeWidth=2;" parent="1" vertex="1">
                    <mxGeometry x="470" y="385" width="120" height="60" as="geometry"/>
                </mxCell>
                <mxCell id="6" value="Fuyu MLM" style="text;html=1;align=center;verticalAlign=middle;whiteSpace=wrap;rounded=0;fontSize=22;fontStyle=1;labelBackgroundColor=#E6E6E6;" parent="1" vertex="1">
                    <mxGeometry x="360" y="130" width="130" height="30" as="geometry"/>
                </mxCell>
                <mxCell id="7" value="" style="rounded=0;whiteSpace=wrap;html=1;fillColor=#dae8fc;strokeColor=#6c8ebf;" parent="1" vertex="1">
                    <mxGeometry x="230" y="285" width="140" height="60" as="geometry"/>
                </mxCell>
                <mxCell id="8" value="" style="rounded=0;whiteSpace=wrap;html=1;fillColor=#dae8fc;strokeColor=#6c8ebf;" parent="1" vertex="1">
                    <mxGeometry x="240" y="295" width="140" height="60" as="geometry"/>
                </mxCell>
                <mxCell id="9" value="&lt;div&gt;(B, features, lat, lon)&lt;/div&gt;" style="rounded=0;whiteSpace=wrap;html=1;fillColor=#dae8fc;strokeColor=#6c8ebf;" parent="1" vertex="1">
                    <mxGeometry x="250" y="305" width="140" height="60" as="geometry"/>
                </mxCell>
                <mxCell id="10" value="time" style="text;html=1;align=center;verticalAlign=middle;whiteSpace=wrap;rounded=0;" parent="1" vertex="1">
                    <mxGeometry x="210" y="355" width="30" height="30" as="geometry"/>
                </mxCell>
                <mxCell id="11" value="" style="endArrow=classic;startArrow=classic;html=1;" parent="1" edge="1">
                    <mxGeometry width="50" height="50" relative="1" as="geometry">
                        <mxPoint x="220" y="345" as="sourcePoint"/>
                        <mxPoint x="250" y="375" as="targetPoint"/>
                    </mxGeometry>
                </mxCell>
                <mxCell id="13" value="" style="endArrow=classic;html=1;exitX=0.468;exitY=1.002;exitDx=0;exitDy=0;entryX=0.5;entryY=0;entryDx=0;entryDy=0;exitPerimeter=0;" parent="1" source="3" target="7" edge="1">
                    <mxGeometry width="50" height="50" relative="1" as="geometry">
                        <mxPoint x="440" y="435" as="sourcePoint"/>
                        <mxPoint x="490" y="385" as="targetPoint"/>
                    </mxGeometry>
                </mxCell>
                <mxCell id="14" value="&lt;font style=&quot;font-size: 9px;&quot;&gt;Rearrange&lt;/font&gt;" style="text;html=1;align=center;verticalAlign=middle;whiteSpace=wrap;rounded=0;" parent="1" vertex="1">
                    <mxGeometry x="300" y="265" width="60" height="20" as="geometry"/>
                </mxCell>
                <mxCell id="15" value="Vision Encoder" style="rhombus;whiteSpace=wrap;html=1;fillColor=#f8cecc;strokeColor=#b85450;" parent="1" vertex="1">
                    <mxGeometry x="270" y="385" width="80" height="80" as="geometry"/>
                </mxCell>
                <mxCell id="16" value="" style="endArrow=classic;html=1;entryX=0.5;entryY=0;entryDx=0;entryDy=0;" parent="1" target="15" edge="1">
                    <mxGeometry width="50" height="50" relative="1" as="geometry">
                        <mxPoint x="310" y="365" as="sourcePoint"/>
                        <mxPoint x="490" y="385" as="targetPoint"/>
                    </mxGeometry>
                </mxCell>
                <mxCell id="17" value="" style="rounded=0;whiteSpace=wrap;html=1;fillColor=#dae8fc;strokeColor=#6c8ebf;" parent="1" vertex="1">
                    <mxGeometry x="240" y="485" width="140" height="60" as="geometry"/>
                </mxCell>
                <mxCell id="29" value="" style="edgeStyle=none;html=1;exitX=0.5;exitY=1;exitDx=0;exitDy=0;entryX=0.5;entryY=0;entryDx=0;entryDy=0;" parent="1" source="15" target="17" edge="1">
                    <mxGeometry relative="1" as="geometry"/>
                </mxCell>
                <mxCell id="18" value="" style="rounded=0;whiteSpace=wrap;html=1;fillColor=#dae8fc;strokeColor=#6c8ebf;" parent="1" vertex="1">
                    <mxGeometry x="250" y="495" width="140" height="60" as="geometry"/>
                </mxCell>
                <mxCell id="31" value="" style="edgeStyle=none;html=1;" parent="1" source="19" target="30" edge="1">
                    <mxGeometry relative="1" as="geometry"/>
                </mxCell>
                <mxCell id="19" value="&lt;div&gt;(B, n&#39;_tok, embed_dim)&lt;/div&gt;" style="rounded=0;whiteSpace=wrap;html=1;fillColor=#dae8fc;strokeColor=#6c8ebf;" parent="1" vertex="1">
                    <mxGeometry x="260" y="505" width="140" height="60" as="geometry"/>
                </mxCell>
                <mxCell id="20" value="" style="endArrow=classic;startArrow=classic;html=1;" parent="1" edge="1">
                    <mxGeometry width="50" height="50" relative="1" as="geometry">
                        <mxPoint x="230" y="545" as="sourcePoint"/>
                        <mxPoint x="260" y="575" as="targetPoint"/>
                    </mxGeometry>
                </mxCell>
                <mxCell id="27" value="" style="edgeStyle=none;html=1;" parent="1" source="23" target="26" edge="1">
                    <mxGeometry relative="1" as="geometry"/>
                </mxCell>
                <mxCell id="23" value="Embedding" style="ellipse;whiteSpace=wrap;html=1;fillColor=#f8cecc;strokeColor=#b85450;" parent="1" vertex="1">
                    <mxGeometry x="470" y="505" width="120" height="50" as="geometry"/>
                </mxCell>
                <mxCell id="25" value="" style="endArrow=classic;html=1;exitX=0.5;exitY=1;exitDx=0;exitDy=0;" parent="1" source="4" target="23" edge="1">
                    <mxGeometry width="50" height="50" relative="1" as="geometry">
                        <mxPoint x="450" y="665" as="sourcePoint"/>
                        <mxPoint x="500" y="615" as="targetPoint"/>
                    </mxGeometry>
                </mxCell>
                <mxCell id="26" value="&lt;div&gt;(B, n_tok, embed_dim)&lt;/div&gt;" style="rounded=0;whiteSpace=wrap;html=1;fillColor=#fff2cc;strokeColor=#d6b656;" parent="1" vertex="1">
                    <mxGeometry x="460" y="585" width="140" height="50" as="geometry"/>
                </mxCell>
                <mxCell id="28" value="time" style="text;html=1;align=center;verticalAlign=middle;whiteSpace=wrap;rounded=0;" parent="1" vertex="1">
                    <mxGeometry x="220" y="555" width="30" height="30" as="geometry"/>
                </mxCell>
                <mxCell id="30" value="&lt;div&gt;(B, n&#39;_tok * time, embed_dim)&lt;/div&gt;" style="rounded=0;whiteSpace=wrap;html=1;fillColor=#dae8fc;strokeColor=#6c8ebf;" parent="1" vertex="1">
                    <mxGeometry x="242.5" y="585" width="175" height="50" as="geometry"/>
                </mxCell>
                <mxCell id="32" value="&lt;font style=&quot;font-size: 9px;&quot;&gt;Cat&lt;/font&gt;" style="text;html=1;align=center;verticalAlign=middle;whiteSpace=wrap;rounded=0;" parent="1" vertex="1">
                    <mxGeometry x="330" y="565" width="40" height="20" as="geometry"/>
                </mxCell>
                <mxCell id="38" value="" style="edgeStyle=none;html=1;dashed=1;" parent="1" source="33" target="fZResalVlZnlM3KxgCgS-67" edge="1">
                    <mxGeometry relative="1" as="geometry">
                        <mxPoint x="536" y="779" as="targetPoint"/>
                    </mxGeometry>
                </mxCell>
                <mxCell id="33" value="&lt;b&gt;Inputs embeddings&lt;/b&gt;&lt;div&gt;(B, n&#39;_tok * time + n_tok, embed_dim)&lt;/div&gt;" style="rounded=0;whiteSpace=wrap;html=1;fillColor=#d5e8d4;strokeColor=#82b366;" parent="1" vertex="1">
                    <mxGeometry x="330" y="685" width="220" height="60" as="geometry"/>
                </mxCell>
                <mxCell id="34" value="" style="endArrow=classic;html=1;exitX=0.5;exitY=1;exitDx=0;exitDy=0;" parent="1" source="30" target="33" edge="1">
                    <mxGeometry width="50" height="50" relative="1" as="geometry">
                        <mxPoint x="400" y="485" as="sourcePoint"/>
                        <mxPoint x="450" y="435" as="targetPoint"/>
                    </mxGeometry>
                </mxCell>
                <mxCell id="35" value="" style="endArrow=classic;html=1;exitX=0.5;exitY=1;exitDx=0;exitDy=0;entryX=0.75;entryY=0;entryDx=0;entryDy=0;" parent="1" source="26" target="33" edge="1">
                    <mxGeometry width="50" height="50" relative="1" as="geometry">
                        <mxPoint x="400" y="485" as="sourcePoint"/>
                        <mxPoint x="450" y="435" as="targetPoint"/>
                    </mxGeometry>
                </mxCell>
                <mxCell id="36" value="&lt;font style=&quot;font-size: 9px;&quot;&gt;Cat&lt;/font&gt;" style="text;html=1;align=center;verticalAlign=middle;whiteSpace=wrap;rounded=0;" parent="1" vertex="1">
                    <mxGeometry x="417.5" y="665" width="40" height="20" as="geometry"/>
                </mxCell>
                <mxCell id="40" value="" style="edgeStyle=none;html=1;dashed=1;" parent="1" source="fZResalVlZnlM3KxgCgS-67" target="39" edge="1">
                    <mxGeometry relative="1" as="geometry">
                        <mxPoint x="535.3846153846154" y="810.3846153846152" as="sourcePoint"/>
                    </mxGeometry>
                </mxCell>
                <mxCell id="42" value="" style="edgeStyle=none;html=1;" parent="1" source="39" target="41" edge="1">
                    <mxGeometry relative="1" as="geometry"/>
                </mxCell>
                <mxCell id="39" value="&lt;div&gt;(B, n&#39;_tok * time + n_tok, embed_dim)&lt;/div&gt;" style="rounded=0;whiteSpace=wrap;html=1;fillColor=#d5e8d4;strokeColor=#82b366;" parent="1" vertex="1">
                    <mxGeometry x="330" y="845" width="220" height="50" as="geometry"/>
                </mxCell>
                <mxCell id="47" value="" style="edgeStyle=none;html=1;entryX=0.5;entryY=0;entryDx=0;entryDy=0;dashed=1;" parent="1" source="41" target="44" edge="1">
                    <mxGeometry relative="1" as="geometry"/>
                </mxCell>
                <mxCell id="49" value="" style="edgeStyle=none;html=1;" parent="1" source="41" target="48" edge="1">
                    <mxGeometry relative="1" as="geometry"/>
                </mxCell>
                <mxCell id="41" value="&lt;div&gt;(B,&amp;nbsp;&lt;span style=&quot;background-color: transparent;&quot;&gt;&lt;b&gt;N&lt;/b&gt;, embed_dim)&lt;/span&gt;&lt;/div&gt;" style="rounded=0;whiteSpace=wrap;html=1;fillColor=#d5e8d4;strokeColor=#82b366;" parent="1" vertex="1">
                    <mxGeometry x="330" y="915" width="220" height="50" as="geometry"/>
                </mxCell>
                <mxCell id="46" value="" style="edgeStyle=none;html=1;dashed=1;" parent="1" source="44" target="45" edge="1">
                    <mxGeometry relative="1" as="geometry"/>
                </mxCell>
                <mxCell id="44" value="Positional&lt;div&gt;Embedding&lt;/div&gt;" style="ellipse;whiteSpace=wrap;html=1;fillColor=#f8cecc;strokeColor=#b85450;dashed=1;" parent="1" vertex="1">
                    <mxGeometry x="512.5" y="995" width="120" height="50" as="geometry"/>
                </mxCell>
                <mxCell id="50" value="" style="edgeStyle=none;html=1;dashed=1;" parent="1" source="45" target="48" edge="1">
                    <mxGeometry relative="1" as="geometry"/>
                </mxCell>
                <mxCell id="45" value="&lt;div&gt;(1,&amp;nbsp;&lt;span style=&quot;background-color: transparent;&quot;&gt;N, embed_dim)&lt;/span&gt;&lt;/div&gt;" style="rounded=0;whiteSpace=wrap;html=1;fillColor=#d5e8d4;strokeColor=#82b366;dashed=1;" parent="1" vertex="1">
                    <mxGeometry x="460" y="1065" width="220" height="50" as="geometry"/>
                </mxCell>
                <mxCell id="56" value="" style="edgeStyle=none;html=1;" parent="1" source="48" target="55" edge="1">
                    <mxGeometry relative="1" as="geometry"/>
                </mxCell>
                <mxCell id="48" value="&lt;div&gt;(B,&amp;nbsp;&lt;span style=&quot;background-color: transparent;&quot;&gt;N, embed_dim)&lt;/span&gt;&lt;/div&gt;" style="rounded=0;whiteSpace=wrap;html=1;fillColor=#d5e8d4;strokeColor=#82b366;" parent="1" vertex="1">
                    <mxGeometry x="330" y="1145" width="220" height="50" as="geometry"/>
                </mxCell>
                <mxCell id="51" value="" style="endArrow=classic;html=1;exitX=0.5;exitY=1;exitDx=0;exitDy=0;" parent="1" source="33" edge="1">
                    <mxGeometry width="50" height="50" relative="1" as="geometry">
                        <mxPoint x="460" y="955" as="sourcePoint"/>
                        <mxPoint x="440" y="845" as="targetPoint"/>
                    </mxGeometry>
                </mxCell>
                <mxCell id="52" value="&lt;font style=&quot;font-size: 9px;&quot;&gt;Identity&lt;/font&gt;" style="text;html=1;align=center;verticalAlign=middle;whiteSpace=wrap;rounded=0;" parent="1" vertex="1">
                    <mxGeometry x="400" y="775" width="40" height="20" as="geometry"/>
                </mxCell>
                <mxCell id="54" value="&lt;font style=&quot;font-size: 9px;&quot;&gt;Add&lt;/font&gt;" style="text;html=1;align=center;verticalAlign=middle;whiteSpace=wrap;rounded=0;" parent="1" vertex="1">
                    <mxGeometry x="444" y="1125" width="40" height="20" as="geometry"/>
                </mxCell>
                <mxCell id="60" value="" style="edgeStyle=none;html=1;" parent="1" source="55" target="59" edge="1">
                    <mxGeometry relative="1" as="geometry"/>
                </mxCell>
                <mxCell id="55" value="LLM" style="rhombus;whiteSpace=wrap;html=1;fillColor=#f8cecc;strokeColor=#b85450;" parent="1" vertex="1">
                    <mxGeometry x="400" y="1215" width="80" height="80" as="geometry"/>
                </mxCell>
                <mxCell id="57" value="" style="edgeStyle=elbowEdgeStyle;elbow=horizontal;endArrow=classic;html=1;curved=0;rounded=0;endSize=8;startSize=8;exitX=0;exitY=0.5;exitDx=0;exitDy=0;entryX=0;entryY=0.5;entryDx=0;entryDy=0;dashed=1;" parent="1" source="41" target="55" edge="1">
                    <mxGeometry width="50" height="50" relative="1" as="geometry">
                        <mxPoint x="260" y="1085" as="sourcePoint"/>
                        <mxPoint x="310" y="1035" as="targetPoint"/>
                        <Array as="points">
                            <mxPoint x="300" y="1095"/>
                        </Array>
                    </mxGeometry>
                </mxCell>
                <mxCell id="58" value="&lt;font style=&quot;font-size: 9px;&quot;&gt;Inject&lt;/font&gt;&lt;div&gt;&lt;font style=&quot;font-size: 9px;&quot;&gt;at each&lt;/font&gt;&lt;/div&gt;&lt;div&gt;&lt;font style=&quot;font-size: 9px;&quot;&gt;stage&lt;/font&gt;&lt;/div&gt;" style="text;html=1;align=center;verticalAlign=middle;whiteSpace=wrap;rounded=0;" parent="1" vertex="1">
                    <mxGeometry x="260" y="1065" width="40" height="20" as="geometry"/>
                </mxCell>
                <mxCell id="62" value="" style="edgeStyle=none;html=1;" parent="1" source="59" target="61" edge="1">
                    <mxGeometry relative="1" as="geometry"/>
                </mxCell>
                <mxCell id="59" value="&lt;div&gt;&lt;span style=&quot;background-color: transparent;&quot;&gt;(B,&amp;nbsp;&lt;/span&gt;&lt;span style=&quot;background-color: transparent;&quot;&gt;N, vocab_size)&lt;/span&gt;&lt;/div&gt;" style="rounded=0;whiteSpace=wrap;html=1;fillColor=#ffe6cc;strokeColor=#d79b00;" parent="1" vertex="1">
                    <mxGeometry x="330" y="1315" width="220" height="45" as="geometry"/>
                </mxCell>
                <mxCell id="61" value="&lt;div&gt;&lt;b&gt;Logits&lt;/b&gt;&lt;/div&gt;&lt;div&gt;(B,&amp;nbsp;&lt;span style=&quot;background-color: transparent;&quot;&gt;n_tok, vocab_size)&lt;/span&gt;&lt;/div&gt;" style="rounded=0;whiteSpace=wrap;html=1;fillColor=#ffe6cc;strokeColor=#d79b00;strokeWidth=2;" parent="1" vertex="1">
                    <mxGeometry x="330" y="1385" width="220" height="50" as="geometry"/>
                </mxCell>
                <mxCell id="65" value="&lt;font style=&quot;font-size: 9px;&quot;&gt;Slice&lt;/font&gt;" style="text;html=1;align=center;verticalAlign=middle;whiteSpace=wrap;rounded=0;" parent="1" vertex="1">
                    <mxGeometry x="440" y="1365" width="40" height="20" as="geometry"/>
                </mxCell>
                <mxCell id="66" value="&lt;font style=&quot;font-size: 9px;&quot;&gt;Slice&lt;/font&gt;" style="text;html=1;align=center;verticalAlign=middle;whiteSpace=wrap;rounded=0;" parent="1" vertex="1">
                    <mxGeometry x="440" y="895" width="40" height="20" as="geometry"/>
                </mxCell>
                <mxCell id="fZResalVlZnlM3KxgCgS-67" value="Layer&lt;div&gt;Norm&lt;/div&gt;" style="ellipse;whiteSpace=wrap;html=1;fillColor=#f8cecc;strokeColor=#b85450;dashed=1;" parent="1" vertex="1">
                    <mxGeometry x="512.5" y="765" width="70" height="55" as="geometry"/>
                </mxCell>
                <mxCell id="fZResalVlZnlM3KxgCgS-68" value="" style="rounded=0;whiteSpace=wrap;html=1;fillColor=none;" parent="1" vertex="1">
                    <mxGeometry x="45" y="1170" width="200" height="230" as="geometry"/>
                </mxCell>
                <mxCell id="fZResalVlZnlM3KxgCgS-69" value="&lt;font style=&quot;font-size: 17px;&quot;&gt;&lt;b&gt;Legend&lt;/b&gt;&lt;/font&gt;" style="text;html=1;align=center;verticalAlign=middle;whiteSpace=wrap;rounded=0;" parent="1" vertex="1">
                    <mxGeometry x="115" y="1180" width="60" height="30" as="geometry"/>
                </mxCell>
                <mxCell id="fZResalVlZnlM3KxgCgS-70" value="" style="rounded=0;whiteSpace=wrap;html=1;" parent="1" vertex="1">
                    <mxGeometry x="55" y="1220" width="60" height="30" as="geometry"/>
                </mxCell>
                <mxCell id="fZResalVlZnlM3KxgCgS-71" value="Tensors" style="text;html=1;align=center;verticalAlign=middle;whiteSpace=wrap;rounded=0;" parent="1" vertex="1">
                    <mxGeometry x="115" y="1220" width="60" height="30" as="geometry"/>
                </mxCell>
                <mxCell id="fZResalVlZnlM3KxgCgS-72" value="" style="rhombus;whiteSpace=wrap;html=1;fillColor=#f8cecc;strokeColor=#b85450;" parent="1" vertex="1">
                    <mxGeometry x="60" y="1260" width="50" height="50" as="geometry"/>
                </mxCell>
                <mxCell id="fZResalVlZnlM3KxgCgS-74" value="Neural Networks" style="text;html=1;align=center;verticalAlign=middle;whiteSpace=wrap;rounded=0;" parent="1" vertex="1">
                    <mxGeometry x="120" y="1270" width="100" height="30" as="geometry"/>
                </mxCell>
                <mxCell id="fZResalVlZnlM3KxgCgS-75" value="" style="ellipse;whiteSpace=wrap;html=1;aspect=fixed;fillColor=#f8cecc;strokeColor=#b85450;" parent="1" vertex="1">
                    <mxGeometry x="67.5" y="1317.5" width="35" height="35" as="geometry"/>
                </mxCell>
                <mxCell id="fZResalVlZnlM3KxgCgS-76" value="Trainable layers" style="text;html=1;align=center;verticalAlign=middle;whiteSpace=wrap;rounded=0;" parent="1" vertex="1">
                    <mxGeometry x="120" y="1320" width="100" height="30" as="geometry"/>
                </mxCell>
                <mxCell id="fZResalVlZnlM3KxgCgS-77" value="" style="endArrow=classic;html=1;dashed=1;" parent="1" edge="1">
                    <mxGeometry width="50" height="50" relative="1" as="geometry">
                        <mxPoint x="65" y="1376" as="sourcePoint"/>
                        <mxPoint x="105" y="1376" as="targetPoint"/>
                    </mxGeometry>
                </mxCell>
                <mxCell id="fZResalVlZnlM3KxgCgS-78" value="Optional operation" style="text;html=1;align=center;verticalAlign=middle;whiteSpace=wrap;rounded=0;" parent="1" vertex="1">
                    <mxGeometry x="120" y="1360" width="105" height="30" as="geometry"/>
                </mxCell>
                <mxCell id="tJhl8bDbs0YgJJy4RsQT-67" style="edgeStyle=none;html=1;entryX=1;entryY=0.5;entryDx=0;entryDy=0;exitX=0;exitY=0;exitDx=75;exitDy=80;exitPerimeter=0;" edge="1" parent="1" source="tJhl8bDbs0YgJJy4RsQT-66" target="41">
                    <mxGeometry relative="1" as="geometry"/>
                </mxCell>
                <mxCell id="tJhl8bDbs0YgJJy4RsQT-66" value="&lt;b&gt;N&lt;/b&gt; =&amp;nbsp;&lt;span style=&quot;color: rgb(0, 0, 0);&quot;&gt;max(&lt;/span&gt;&lt;div&gt;&lt;span style=&quot;color: rgb(0, 0, 0);&quot;&gt;n&#39;_tok * time + n_tok, context_len)&lt;/span&gt;&lt;/div&gt;" style="shape=callout;whiteSpace=wrap;html=1;perimeter=calloutPerimeter;" vertex="1" parent="1">
                    <mxGeometry x="632.5" y="860" width="150" height="80" as="geometry"/>
                </mxCell>
            </root>
        </mxGraphModel>
    </diagram>
    <diagram name="XAtt" id="a4jGm6xqIhir1LedH1ac">
        <mxGraphModel dx="1356" dy="1506" grid="1" gridSize="10" guides="1" tooltips="1" connect="1" arrows="1" fold="1" page="1" pageScale="1" pageWidth="827" pageHeight="1169" background="#ffffff" math="0" shadow="0">
            <root>
                <mxCell id="KB6BPB1OjG2h3JSSUMUO-0"/>
                <mxCell id="KB6BPB1OjG2h3JSSUMUO-1" parent="KB6BPB1OjG2h3JSSUMUO-0"/>
                <mxCell id="ZkU_CyL0ncZmUyhXqpeo-0" value="" style="shape=ext;double=1;rounded=0;whiteSpace=wrap;html=1;fillColor=none;strokeColor=#b85450;strokeWidth=2;" vertex="1" parent="KB6BPB1OjG2h3JSSUMUO-1">
                    <mxGeometry x="300" y="192.5" width="480" height="820" as="geometry"/>
                </mxCell>
                <mxCell id="bPCxT5bmTV2xp-g9Kk3w-21" value="" style="rounded=0;whiteSpace=wrap;html=1;fillColor=none;dashed=1;dashPattern=1 1;" vertex="1" parent="KB6BPB1OjG2h3JSSUMUO-1">
                    <mxGeometry x="420" y="457.5" width="230" height="275" as="geometry"/>
                </mxCell>
                <mxCell id="KB6BPB1OjG2h3JSSUMUO-2" value="&lt;b&gt;Weather Inputs&lt;/b&gt;&lt;div&gt;(B, lat, lon, features, time)&lt;/div&gt;" style="rounded=0;whiteSpace=wrap;html=1;fillColor=#dae8fc;strokeColor=#6c8ebf;strokeWidth=2;" vertex="1" parent="KB6BPB1OjG2h3JSSUMUO-1">
                    <mxGeometry x="60" y="100" width="150" height="60" as="geometry"/>
                </mxCell>
                <mxCell id="KB6BPB1OjG2h3JSSUMUO-3" value="&lt;b&gt;Text Inputs&lt;/b&gt;&lt;div&gt;(B, n_tok)&lt;/div&gt;" style="rounded=0;whiteSpace=wrap;html=1;fillColor=#fff2cc;strokeColor=#d6b656;strokeWidth=2;" vertex="1" parent="KB6BPB1OjG2h3JSSUMUO-1">
                    <mxGeometry x="400" y="102.5" width="120" height="60" as="geometry"/>
                </mxCell>
                <mxCell id="KB6BPB1OjG2h3JSSUMUO-4" value="XAttMultimodalLM" style="text;html=1;align=center;verticalAlign=middle;whiteSpace=wrap;rounded=0;fontSize=22;fontStyle=1;labelBackgroundColor=#E6E6E6;" vertex="1" parent="KB6BPB1OjG2h3JSSUMUO-1">
                    <mxGeometry x="350" y="30" width="200" height="30" as="geometry"/>
                </mxCell>
                <mxCell id="KB6BPB1OjG2h3JSSUMUO-5" value="" style="rounded=0;whiteSpace=wrap;html=1;fillColor=#dae8fc;strokeColor=#6c8ebf;" vertex="1" parent="KB6BPB1OjG2h3JSSUMUO-1">
                    <mxGeometry x="60" y="180" width="140" height="60" as="geometry"/>
                </mxCell>
                <mxCell id="KB6BPB1OjG2h3JSSUMUO-6" value="" style="rounded=0;whiteSpace=wrap;html=1;fillColor=#dae8fc;strokeColor=#6c8ebf;" vertex="1" parent="KB6BPB1OjG2h3JSSUMUO-1">
                    <mxGeometry x="70" y="190" width="140" height="60" as="geometry"/>
                </mxCell>
                <mxCell id="KB6BPB1OjG2h3JSSUMUO-7" value="&lt;div&gt;(B, features, lat, lon)&lt;/div&gt;" style="rounded=0;whiteSpace=wrap;html=1;fillColor=#dae8fc;strokeColor=#6c8ebf;" vertex="1" parent="KB6BPB1OjG2h3JSSUMUO-1">
                    <mxGeometry x="80" y="200" width="140" height="60" as="geometry"/>
                </mxCell>
                <mxCell id="KB6BPB1OjG2h3JSSUMUO-8" value="time" style="text;html=1;align=center;verticalAlign=middle;whiteSpace=wrap;rounded=0;" vertex="1" parent="KB6BPB1OjG2h3JSSUMUO-1">
                    <mxGeometry x="40" y="250" width="30" height="30" as="geometry"/>
                </mxCell>
                <mxCell id="KB6BPB1OjG2h3JSSUMUO-9" value="" style="endArrow=classic;startArrow=classic;html=1;" edge="1" parent="KB6BPB1OjG2h3JSSUMUO-1">
                    <mxGeometry width="50" height="50" relative="1" as="geometry">
                        <mxPoint x="50" y="240" as="sourcePoint"/>
                        <mxPoint x="80" y="270" as="targetPoint"/>
                    </mxGeometry>
                </mxCell>
                <mxCell id="KB6BPB1OjG2h3JSSUMUO-10" value="" style="endArrow=classic;html=1;exitX=0.468;exitY=1.002;exitDx=0;exitDy=0;entryX=0.5;entryY=0;entryDx=0;entryDy=0;exitPerimeter=0;" edge="1" parent="KB6BPB1OjG2h3JSSUMUO-1" source="KB6BPB1OjG2h3JSSUMUO-2" target="KB6BPB1OjG2h3JSSUMUO-5">
                    <mxGeometry width="50" height="50" relative="1" as="geometry">
                        <mxPoint x="270" y="330" as="sourcePoint"/>
                        <mxPoint x="320" y="280" as="targetPoint"/>
                    </mxGeometry>
                </mxCell>
                <mxCell id="KB6BPB1OjG2h3JSSUMUO-11" value="&lt;font style=&quot;font-size: 9px;&quot;&gt;Rearrange&lt;/font&gt;" style="text;html=1;align=center;verticalAlign=middle;whiteSpace=wrap;rounded=0;" vertex="1" parent="KB6BPB1OjG2h3JSSUMUO-1">
                    <mxGeometry x="130" y="160" width="60" height="20" as="geometry"/>
                </mxCell>
                <mxCell id="KB6BPB1OjG2h3JSSUMUO-12" value="Vision Encoder" style="rhombus;whiteSpace=wrap;html=1;fillColor=#f8cecc;strokeColor=#b85450;" vertex="1" parent="KB6BPB1OjG2h3JSSUMUO-1">
                    <mxGeometry x="100" y="280" width="80" height="80" as="geometry"/>
                </mxCell>
                <mxCell id="KB6BPB1OjG2h3JSSUMUO-13" value="" style="endArrow=classic;html=1;entryX=0.5;entryY=0;entryDx=0;entryDy=0;" edge="1" parent="KB6BPB1OjG2h3JSSUMUO-1" target="KB6BPB1OjG2h3JSSUMUO-12">
                    <mxGeometry width="50" height="50" relative="1" as="geometry">
                        <mxPoint x="140" y="260" as="sourcePoint"/>
                        <mxPoint x="320" y="280" as="targetPoint"/>
                    </mxGeometry>
                </mxCell>
                <mxCell id="KB6BPB1OjG2h3JSSUMUO-14" value="" style="rounded=0;whiteSpace=wrap;html=1;fillColor=#dae8fc;strokeColor=#6c8ebf;" vertex="1" parent="KB6BPB1OjG2h3JSSUMUO-1">
                    <mxGeometry x="70" y="380" width="140" height="60" as="geometry"/>
                </mxCell>
                <mxCell id="KB6BPB1OjG2h3JSSUMUO-15" value="" style="edgeStyle=none;html=1;exitX=0.5;exitY=1;exitDx=0;exitDy=0;entryX=0.5;entryY=0;entryDx=0;entryDy=0;" edge="1" parent="KB6BPB1OjG2h3JSSUMUO-1" source="KB6BPB1OjG2h3JSSUMUO-12" target="KB6BPB1OjG2h3JSSUMUO-14">
                    <mxGeometry relative="1" as="geometry"/>
                </mxCell>
                <mxCell id="KB6BPB1OjG2h3JSSUMUO-16" value="" style="rounded=0;whiteSpace=wrap;html=1;fillColor=#dae8fc;strokeColor=#6c8ebf;" vertex="1" parent="KB6BPB1OjG2h3JSSUMUO-1">
                    <mxGeometry x="80" y="390" width="140" height="60" as="geometry"/>
                </mxCell>
                <mxCell id="KB6BPB1OjG2h3JSSUMUO-17" value="" style="edgeStyle=none;html=1;" edge="1" parent="KB6BPB1OjG2h3JSSUMUO-1" source="KB6BPB1OjG2h3JSSUMUO-18" target="KB6BPB1OjG2h3JSSUMUO-25">
                    <mxGeometry relative="1" as="geometry"/>
                </mxCell>
                <mxCell id="KB6BPB1OjG2h3JSSUMUO-18" value="&lt;div&gt;(B, n&#39;_tok, embed_dim)&lt;/div&gt;" style="rounded=0;whiteSpace=wrap;html=1;fillColor=#dae8fc;strokeColor=#6c8ebf;" vertex="1" parent="KB6BPB1OjG2h3JSSUMUO-1">
                    <mxGeometry x="90" y="400" width="140" height="60" as="geometry"/>
                </mxCell>
                <mxCell id="KB6BPB1OjG2h3JSSUMUO-19" value="" style="endArrow=classic;startArrow=classic;html=1;" edge="1" parent="KB6BPB1OjG2h3JSSUMUO-1">
                    <mxGeometry width="50" height="50" relative="1" as="geometry">
                        <mxPoint x="60" y="440" as="sourcePoint"/>
                        <mxPoint x="90" y="470" as="targetPoint"/>
                    </mxGeometry>
                </mxCell>
                <mxCell id="KB6BPB1OjG2h3JSSUMUO-20" value="" style="edgeStyle=none;html=1;" edge="1" parent="KB6BPB1OjG2h3JSSUMUO-1" source="KB6BPB1OjG2h3JSSUMUO-21" target="KB6BPB1OjG2h3JSSUMUO-23">
                    <mxGeometry relative="1" as="geometry"/>
                </mxCell>
                <mxCell id="KB6BPB1OjG2h3JSSUMUO-21" value="Embedding" style="ellipse;whiteSpace=wrap;html=1;fillColor=#f8cecc;strokeColor=#b85450;" vertex="1" parent="KB6BPB1OjG2h3JSSUMUO-1">
                    <mxGeometry x="400" y="257.5" width="120" height="50" as="geometry"/>
                </mxCell>
                <mxCell id="KB6BPB1OjG2h3JSSUMUO-22" value="" style="endArrow=classic;html=1;exitX=0.5;exitY=1;exitDx=0;exitDy=0;" edge="1" parent="KB6BPB1OjG2h3JSSUMUO-1" source="KB6BPB1OjG2h3JSSUMUO-3" target="KB6BPB1OjG2h3JSSUMUO-21">
                    <mxGeometry width="50" height="50" relative="1" as="geometry">
                        <mxPoint x="380" y="457.5" as="sourcePoint"/>
                        <mxPoint x="430" y="407.5" as="targetPoint"/>
                    </mxGeometry>
                </mxCell>
                <mxCell id="bPCxT5bmTV2xp-g9Kk3w-11" style="edgeStyle=none;html=1;" edge="1" parent="KB6BPB1OjG2h3JSSUMUO-1" source="KB6BPB1OjG2h3JSSUMUO-23" target="bPCxT5bmTV2xp-g9Kk3w-10">
                    <mxGeometry relative="1" as="geometry"/>
                </mxCell>
                <mxCell id="KB6BPB1OjG2h3JSSUMUO-23" value="&lt;div&gt;(B, n_tok, embed_dim)&lt;/div&gt;" style="rounded=0;whiteSpace=wrap;html=1;fillColor=#fff2cc;strokeColor=#d6b656;" vertex="1" parent="KB6BPB1OjG2h3JSSUMUO-1">
                    <mxGeometry x="390" y="322.5" width="140" height="50" as="geometry"/>
                </mxCell>
                <mxCell id="KB6BPB1OjG2h3JSSUMUO-24" value="time" style="text;html=1;align=center;verticalAlign=middle;whiteSpace=wrap;rounded=0;" vertex="1" parent="KB6BPB1OjG2h3JSSUMUO-1">
                    <mxGeometry x="50" y="450" width="30" height="30" as="geometry"/>
                </mxCell>
                <mxCell id="bPCxT5bmTV2xp-g9Kk3w-4" style="edgeStyle=none;html=1;" edge="1" parent="KB6BPB1OjG2h3JSSUMUO-1" source="KB6BPB1OjG2h3JSSUMUO-25" target="bPCxT5bmTV2xp-g9Kk3w-3">
                    <mxGeometry relative="1" as="geometry"/>
                </mxCell>
                <mxCell id="KB6BPB1OjG2h3JSSUMUO-25" value="&lt;div&gt;(B, n&#39;_tok * time, embed_dim)&lt;/div&gt;" style="rounded=0;whiteSpace=wrap;html=1;fillColor=#dae8fc;strokeColor=#6c8ebf;" vertex="1" parent="KB6BPB1OjG2h3JSSUMUO-1">
                    <mxGeometry x="72.5" y="480" width="175" height="50" as="geometry"/>
                </mxCell>
                <mxCell id="KB6BPB1OjG2h3JSSUMUO-26" value="&lt;font style=&quot;font-size: 9px;&quot;&gt;Cat&lt;/font&gt;" style="text;html=1;align=center;verticalAlign=middle;whiteSpace=wrap;rounded=0;" vertex="1" parent="KB6BPB1OjG2h3JSSUMUO-1">
                    <mxGeometry x="160" y="460" width="40" height="20" as="geometry"/>
                </mxCell>
                <mxCell id="KB6BPB1OjG2h3JSSUMUO-42" value="" style="edgeStyle=none;html=1;" edge="1" parent="KB6BPB1OjG2h3JSSUMUO-1" source="KB6BPB1OjG2h3JSSUMUO-43" target="ivdO3MBUGRIIu3nnEx14-0">
                    <mxGeometry relative="1" as="geometry">
                        <mxPoint x="540" y="832.5000000000002" as="targetPoint"/>
                    </mxGeometry>
                </mxCell>
                <mxCell id="KB6BPB1OjG2h3JSSUMUO-43" value="&lt;div&gt;(B, n_tok&lt;span style=&quot;background-color: transparent;&quot;&gt;, embed_dim)&lt;/span&gt;&lt;/div&gt;" style="rounded=0;whiteSpace=wrap;html=1;fillColor=#d5e8d4;strokeColor=#82b366;" vertex="1" parent="KB6BPB1OjG2h3JSSUMUO-1">
                    <mxGeometry x="430" y="752.5" width="220" height="30" as="geometry"/>
                </mxCell>
                <mxCell id="KB6BPB1OjG2h3JSSUMUO-53" value="&lt;div&gt;&lt;b&gt;Logits&lt;/b&gt;&lt;/div&gt;&lt;div&gt;(B,&amp;nbsp;&lt;span style=&quot;background-color: transparent;&quot;&gt;n_tok, vocab_size)&lt;/span&gt;&lt;/div&gt;" style="rounded=0;whiteSpace=wrap;html=1;fillColor=#d5e8d4;strokeColor=#82b366;strokeWidth=2;" vertex="1" parent="KB6BPB1OjG2h3JSSUMUO-1">
                    <mxGeometry x="430" y="1042.5" width="220" height="50" as="geometry"/>
                </mxCell>
                <mxCell id="KB6BPB1OjG2h3JSSUMUO-57" value="" style="rounded=0;whiteSpace=wrap;html=1;fillColor=none;" vertex="1" parent="KB6BPB1OjG2h3JSSUMUO-1">
                    <mxGeometry x="47.5" y="782.5" width="200" height="230" as="geometry"/>
                </mxCell>
                <mxCell id="KB6BPB1OjG2h3JSSUMUO-58" value="&lt;font style=&quot;font-size: 17px;&quot;&gt;&lt;b&gt;Legend&lt;/b&gt;&lt;/font&gt;" style="text;html=1;align=center;verticalAlign=middle;whiteSpace=wrap;rounded=0;" vertex="1" parent="KB6BPB1OjG2h3JSSUMUO-1">
                    <mxGeometry x="117.5" y="792.5" width="60" height="30" as="geometry"/>
                </mxCell>
                <mxCell id="KB6BPB1OjG2h3JSSUMUO-59" value="" style="rounded=0;whiteSpace=wrap;html=1;" vertex="1" parent="KB6BPB1OjG2h3JSSUMUO-1">
                    <mxGeometry x="57.5" y="832.5" width="60" height="30" as="geometry"/>
                </mxCell>
                <mxCell id="KB6BPB1OjG2h3JSSUMUO-60" value="Tensors" style="text;html=1;align=center;verticalAlign=middle;whiteSpace=wrap;rounded=0;" vertex="1" parent="KB6BPB1OjG2h3JSSUMUO-1">
                    <mxGeometry x="117.5" y="832.5" width="60" height="30" as="geometry"/>
                </mxCell>
                <mxCell id="KB6BPB1OjG2h3JSSUMUO-61" value="" style="rhombus;whiteSpace=wrap;html=1;fillColor=#f8cecc;strokeColor=#b85450;" vertex="1" parent="KB6BPB1OjG2h3JSSUMUO-1">
                    <mxGeometry x="62.5" y="872.5" width="50" height="50" as="geometry"/>
                </mxCell>
                <mxCell id="KB6BPB1OjG2h3JSSUMUO-62" value="Neural Networks" style="text;html=1;align=center;verticalAlign=middle;whiteSpace=wrap;rounded=0;" vertex="1" parent="KB6BPB1OjG2h3JSSUMUO-1">
                    <mxGeometry x="122.5" y="882.5" width="100" height="30" as="geometry"/>
                </mxCell>
                <mxCell id="KB6BPB1OjG2h3JSSUMUO-63" value="" style="ellipse;whiteSpace=wrap;html=1;aspect=fixed;fillColor=#f8cecc;strokeColor=#b85450;" vertex="1" parent="KB6BPB1OjG2h3JSSUMUO-1">
                    <mxGeometry x="70" y="930" width="35" height="35" as="geometry"/>
                </mxCell>
                <mxCell id="KB6BPB1OjG2h3JSSUMUO-64" value="Trainable layers" style="text;html=1;align=center;verticalAlign=middle;whiteSpace=wrap;rounded=0;" vertex="1" parent="KB6BPB1OjG2h3JSSUMUO-1">
                    <mxGeometry x="122.5" y="932.5" width="100" height="30" as="geometry"/>
                </mxCell>
                <mxCell id="KB6BPB1OjG2h3JSSUMUO-65" value="" style="endArrow=classic;html=1;dashed=1;" edge="1" parent="KB6BPB1OjG2h3JSSUMUO-1">
                    <mxGeometry width="50" height="50" relative="1" as="geometry">
                        <mxPoint x="67.5" y="988.5" as="sourcePoint"/>
                        <mxPoint x="107.5" y="988.5" as="targetPoint"/>
                    </mxGeometry>
                </mxCell>
                <mxCell id="KB6BPB1OjG2h3JSSUMUO-66" value="Optional operation" style="text;html=1;align=center;verticalAlign=middle;whiteSpace=wrap;rounded=0;" vertex="1" parent="KB6BPB1OjG2h3JSSUMUO-1">
                    <mxGeometry x="122.5" y="972.5" width="105" height="30" as="geometry"/>
                </mxCell>
                <mxCell id="bPCxT5bmTV2xp-g9Kk3w-0" value="Layer&lt;div&gt;Norm&lt;/div&gt;" style="ellipse;whiteSpace=wrap;html=1;fillColor=#f8cecc;strokeColor=#b85450;dashed=1;" vertex="1" parent="KB6BPB1OjG2h3JSSUMUO-1">
                    <mxGeometry x="210" y="545" width="70" height="55" as="geometry"/>
                </mxCell>
                <mxCell id="bPCxT5bmTV2xp-g9Kk3w-1" value="" style="edgeStyle=none;html=1;dashed=1;" edge="1" parent="KB6BPB1OjG2h3JSSUMUO-1" source="KB6BPB1OjG2h3JSSUMUO-25" target="bPCxT5bmTV2xp-g9Kk3w-0">
                    <mxGeometry relative="1" as="geometry">
                        <mxPoint x="392.75" y="811" as="targetPoint"/>
                        <mxPoint x="365.75" y="795" as="sourcePoint"/>
                    </mxGeometry>
                </mxCell>
                <mxCell id="bPCxT5bmTV2xp-g9Kk3w-2" value="" style="edgeStyle=none;html=1;dashed=1;" edge="1" parent="KB6BPB1OjG2h3JSSUMUO-1" source="bPCxT5bmTV2xp-g9Kk3w-0" target="bPCxT5bmTV2xp-g9Kk3w-3">
                    <mxGeometry relative="1" as="geometry">
                        <mxPoint x="395.75" y="846" as="sourcePoint"/>
                        <mxPoint x="183.75" y="655" as="targetPoint"/>
                    </mxGeometry>
                </mxCell>
                <mxCell id="bPCxT5bmTV2xp-g9Kk3w-27" style="edgeStyle=none;html=1;entryX=0;entryY=0.5;entryDx=0;entryDy=0;" edge="1" parent="KB6BPB1OjG2h3JSSUMUO-1" source="bPCxT5bmTV2xp-g9Kk3w-3" target="bPCxT5bmTV2xp-g9Kk3w-17">
                    <mxGeometry relative="1" as="geometry"/>
                </mxCell>
                <mxCell id="bPCxT5bmTV2xp-g9Kk3w-3" value="&lt;div&gt;(B, n&#39;_tok * time, embed_dim)&lt;/div&gt;" style="rounded=0;whiteSpace=wrap;html=1;fillColor=#dae8fc;strokeColor=#6c8ebf;" vertex="1" parent="KB6BPB1OjG2h3JSSUMUO-1">
                    <mxGeometry x="72.5" y="615" width="175" height="50" as="geometry"/>
                </mxCell>
                <mxCell id="bPCxT5bmTV2xp-g9Kk3w-5" value="&lt;font style=&quot;font-size: 9px;&quot;&gt;Identity&lt;/font&gt;" style="text;html=1;align=center;verticalAlign=middle;whiteSpace=wrap;rounded=0;" vertex="1" parent="KB6BPB1OjG2h3JSSUMUO-1">
                    <mxGeometry x="110" y="555" width="40" height="20" as="geometry"/>
                </mxCell>
                <mxCell id="bPCxT5bmTV2xp-g9Kk3w-12" style="edgeStyle=none;html=1;" edge="1" parent="KB6BPB1OjG2h3JSSUMUO-1" source="bPCxT5bmTV2xp-g9Kk3w-9" target="bPCxT5bmTV2xp-g9Kk3w-10">
                    <mxGeometry relative="1" as="geometry"/>
                </mxCell>
                <mxCell id="bPCxT5bmTV2xp-g9Kk3w-9" value="Positional&lt;div&gt;Embeding&lt;/div&gt;" style="ellipse;whiteSpace=wrap;html=1;fillColor=#f8cecc;strokeColor=#b85450;" vertex="1" parent="KB6BPB1OjG2h3JSSUMUO-1">
                    <mxGeometry x="567.5" y="322.5" width="120" height="50" as="geometry"/>
                </mxCell>
                <mxCell id="bPCxT5bmTV2xp-g9Kk3w-10" value="&lt;div&gt;(B, n_tok, embed_dim)&lt;/div&gt;" style="rounded=0;whiteSpace=wrap;html=1;fillColor=#fff2cc;strokeColor=#d6b656;" vertex="1" parent="KB6BPB1OjG2h3JSSUMUO-1">
                    <mxGeometry x="467.5" y="392.5" width="140" height="50" as="geometry"/>
                </mxCell>
                <mxCell id="bPCxT5bmTV2xp-g9Kk3w-13" value="&lt;font style=&quot;font-size: 9px;&quot;&gt;Sum&lt;/font&gt;" style="text;html=1;align=center;verticalAlign=middle;whiteSpace=wrap;rounded=0;" vertex="1" parent="KB6BPB1OjG2h3JSSUMUO-1">
                    <mxGeometry x="517.5" y="372.5" width="40" height="20" as="geometry"/>
                </mxCell>
                <mxCell id="bPCxT5bmTV2xp-g9Kk3w-18" style="edgeStyle=none;html=1;" edge="1" parent="KB6BPB1OjG2h3JSSUMUO-1" source="bPCxT5bmTV2xp-g9Kk3w-14" target="bPCxT5bmTV2xp-g9Kk3w-15">
                    <mxGeometry relative="1" as="geometry"/>
                </mxCell>
                <mxCell id="bPCxT5bmTV2xp-g9Kk3w-14" value="Transformer&lt;div&gt;Block&lt;/div&gt;" style="rhombus;whiteSpace=wrap;html=1;fillColor=#f8cecc;strokeColor=#b85450;" vertex="1" parent="KB6BPB1OjG2h3JSSUMUO-1">
                    <mxGeometry x="445" y="462.5" width="185" height="50" as="geometry"/>
                </mxCell>
                <mxCell id="bPCxT5bmTV2xp-g9Kk3w-19" style="edgeStyle=none;html=1;" edge="1" parent="KB6BPB1OjG2h3JSSUMUO-1" source="bPCxT5bmTV2xp-g9Kk3w-15" target="bPCxT5bmTV2xp-g9Kk3w-16">
                    <mxGeometry relative="1" as="geometry"/>
                </mxCell>
                <mxCell id="bPCxT5bmTV2xp-g9Kk3w-15" value="Transformer&lt;div&gt;Block&lt;/div&gt;" style="rhombus;whiteSpace=wrap;html=1;fillColor=#f8cecc;strokeColor=#b85450;" vertex="1" parent="KB6BPB1OjG2h3JSSUMUO-1">
                    <mxGeometry x="445" y="532.5" width="185" height="50" as="geometry"/>
                </mxCell>
                <mxCell id="bPCxT5bmTV2xp-g9Kk3w-20" style="edgeStyle=none;html=1;" edge="1" parent="KB6BPB1OjG2h3JSSUMUO-1" source="bPCxT5bmTV2xp-g9Kk3w-16" target="bPCxT5bmTV2xp-g9Kk3w-17">
                    <mxGeometry relative="1" as="geometry"/>
                </mxCell>
                <mxCell id="bPCxT5bmTV2xp-g9Kk3w-16" value="Transformer&lt;div&gt;Block&lt;/div&gt;" style="rhombus;whiteSpace=wrap;html=1;fillColor=#f8cecc;strokeColor=#b85450;" vertex="1" parent="KB6BPB1OjG2h3JSSUMUO-1">
                    <mxGeometry x="445" y="602.5" width="185" height="50" as="geometry"/>
                </mxCell>
                <mxCell id="bPCxT5bmTV2xp-g9Kk3w-23" style="edgeStyle=none;html=1;exitX=0.52;exitY=1;exitDx=0;exitDy=0;exitPerimeter=0;" edge="1" parent="KB6BPB1OjG2h3JSSUMUO-1" source="bPCxT5bmTV2xp-g9Kk3w-21" target="KB6BPB1OjG2h3JSSUMUO-43">
                    <mxGeometry relative="1" as="geometry"/>
                </mxCell>
                <mxCell id="bPCxT5bmTV2xp-g9Kk3w-17" value="&lt;b&gt;XAtt&lt;/b&gt; Transformer&lt;div&gt;Block&lt;/div&gt;" style="rhombus;whiteSpace=wrap;html=1;fillColor=#f8cecc;strokeColor=#b85450;" vertex="1" parent="KB6BPB1OjG2h3JSSUMUO-1">
                    <mxGeometry x="445" y="672.5" width="185" height="50" as="geometry"/>
                </mxCell>
                <mxCell id="bPCxT5bmTV2xp-g9Kk3w-22" style="edgeStyle=none;html=1;entryX=0.517;entryY=-0.003;entryDx=0;entryDy=0;entryPerimeter=0;" edge="1" parent="KB6BPB1OjG2h3JSSUMUO-1" source="bPCxT5bmTV2xp-g9Kk3w-10" target="bPCxT5bmTV2xp-g9Kk3w-21">
                    <mxGeometry relative="1" as="geometry"/>
                </mxCell>
                <mxCell id="bPCxT5bmTV2xp-g9Kk3w-25" value="" style="edgeStyle=elbowEdgeStyle;elbow=horizontal;endArrow=classic;html=1;curved=0;rounded=0;endSize=8;startSize=8;exitX=1;exitY=0.5;exitDx=0;exitDy=0;entryX=1;entryY=0.5;entryDx=0;entryDy=0;" edge="1" parent="KB6BPB1OjG2h3JSSUMUO-1" source="bPCxT5bmTV2xp-g9Kk3w-17" target="bPCxT5bmTV2xp-g9Kk3w-14">
                    <mxGeometry width="50" height="50" relative="1" as="geometry">
                        <mxPoint x="690" y="602.5" as="sourcePoint"/>
                        <mxPoint x="730" y="482.5" as="targetPoint"/>
                        <Array as="points">
                            <mxPoint x="690" y="592.5"/>
                        </Array>
                    </mxGeometry>
                </mxCell>
                <mxCell id="bPCxT5bmTV2xp-g9Kk3w-26" value="&lt;font style=&quot;font-size: 9px;&quot;&gt;N_layers // XAtt_ratio&lt;/font&gt;" style="text;html=1;align=center;verticalAlign=middle;whiteSpace=wrap;rounded=0;" vertex="1" parent="KB6BPB1OjG2h3JSSUMUO-1">
                    <mxGeometry x="690" y="592.5" width="50" height="20" as="geometry"/>
                </mxCell>
                <mxCell id="ZkU_CyL0ncZmUyhXqpeo-1" value="XAttGPT2" style="text;html=1;align=center;verticalAlign=middle;whiteSpace=wrap;rounded=0;fontSize=22;fontStyle=1;labelBackgroundColor=#E6E6E6;" vertex="1" parent="KB6BPB1OjG2h3JSSUMUO-1">
                    <mxGeometry x="470" y="202.5" width="140" height="30" as="geometry"/>
                </mxCell>
                <mxCell id="1xdKXJF2n_i8HaHSBGSu-3" style="edgeStyle=none;html=1;" edge="1" parent="KB6BPB1OjG2h3JSSUMUO-1" source="ivdO3MBUGRIIu3nnEx14-0" target="1xdKXJF2n_i8HaHSBGSu-1">
                    <mxGeometry relative="1" as="geometry"/>
                </mxCell>
                <mxCell id="ivdO3MBUGRIIu3nnEx14-0" value="Layer Norm" style="ellipse;whiteSpace=wrap;html=1;fillColor=#f8cecc;strokeColor=#b85450;" vertex="1" parent="KB6BPB1OjG2h3JSSUMUO-1">
                    <mxGeometry x="503.25" y="802.5" width="73.5" height="35" as="geometry"/>
                </mxCell>
                <mxCell id="1xdKXJF2n_i8HaHSBGSu-5" style="edgeStyle=none;html=1;" edge="1" parent="KB6BPB1OjG2h3JSSUMUO-1" source="1xdKXJF2n_i8HaHSBGSu-0" target="KB6BPB1OjG2h3JSSUMUO-53">
                    <mxGeometry relative="1" as="geometry"/>
                </mxCell>
                <mxCell id="1xdKXJF2n_i8HaHSBGSu-0" value="Linear" style="rhombus;whiteSpace=wrap;html=1;fillColor=#f8cecc;strokeColor=#b85450;" vertex="1" parent="KB6BPB1OjG2h3JSSUMUO-1">
                    <mxGeometry x="500" y="902.5" width="80" height="80" as="geometry"/>
                </mxCell>
                <mxCell id="1xdKXJF2n_i8HaHSBGSu-4" style="edgeStyle=none;html=1;" edge="1" parent="KB6BPB1OjG2h3JSSUMUO-1" source="1xdKXJF2n_i8HaHSBGSu-1" target="1xdKXJF2n_i8HaHSBGSu-0">
                    <mxGeometry relative="1" as="geometry"/>
                </mxCell>
                <mxCell id="1xdKXJF2n_i8HaHSBGSu-1" value="&lt;div&gt;(B, n_tok&lt;span style=&quot;background-color: transparent;&quot;&gt;, embed_dim)&lt;/span&gt;&lt;/div&gt;" style="rounded=0;whiteSpace=wrap;html=1;fillColor=#d5e8d4;strokeColor=#82b366;" vertex="1" parent="KB6BPB1OjG2h3JSSUMUO-1">
                    <mxGeometry x="430" y="852.5" width="220" height="30" as="geometry"/>
                </mxCell>
            </root>
        </mxGraphModel>
    </diagram>
    <diagram id="VOcWOpmu85paYqIC9H8d" name="ResNet50MLM">
        <mxGraphModel dx="1356" dy="1506" grid="1" gridSize="10" guides="1" tooltips="1" connect="1" arrows="1" fold="1" page="1" pageScale="1" pageWidth="827" pageHeight="1169" background="#ffffff" math="0" shadow="0">
            <root>
                <mxCell id="0"/>
                <mxCell id="1" parent="0"/>
                <mxCell id="rYx3gDcJODvSpZovMFh1-2" value="" style="edgeStyle=none;html=1;" parent="1" source="F48xH0BiuQwHIjJcF4aA-1" target="rYx3gDcJODvSpZovMFh1-1" edge="1">
                    <mxGeometry relative="1" as="geometry"/>
                </mxCell>
                <mxCell id="F48xH0BiuQwHIjJcF4aA-1" value="&lt;b&gt;Weather Inputs&lt;/b&gt;&lt;div&gt;(B, features, lat, lon)&lt;/div&gt;" style="rounded=0;whiteSpace=wrap;html=1;fillColor=#dae8fc;strokeColor=#6c8ebf;strokeWidth=2;" parent="1" vertex="1">
                    <mxGeometry x="348.5" y="180" width="150" height="60" as="geometry"/>
                </mxCell>
                <mxCell id="F48xH0BiuQwHIjJcF4aA-2" value="ResNet50MLM Vision Encoder" style="text;html=1;align=center;verticalAlign=middle;whiteSpace=wrap;rounded=0;fontSize=22;fontStyle=1;labelBackgroundColor=#E6E6E6;" parent="1" vertex="1">
                    <mxGeometry x="270" y="130" width="320" height="30" as="geometry"/>
                </mxCell>
                <mxCell id="rYx3gDcJODvSpZovMFh1-5" value="" style="edgeStyle=none;html=1;" parent="1" source="F48xH0BiuQwHIjJcF4aA-5" target="rYx3gDcJODvSpZovMFh1-4" edge="1">
                    <mxGeometry relative="1" as="geometry"/>
                </mxCell>
                <mxCell id="F48xH0BiuQwHIjJcF4aA-5" value="&lt;div&gt;(B, out_channels, 2, 2)&lt;/div&gt;" style="rounded=0;whiteSpace=wrap;html=1;fillColor=#dae8fc;strokeColor=#6c8ebf;" parent="1" vertex="1">
                    <mxGeometry x="353.5" y="360" width="140" height="40" as="geometry"/>
                </mxCell>
                <mxCell id="rYx3gDcJODvSpZovMFh1-3" value="" style="edgeStyle=none;html=1;" parent="1" source="rYx3gDcJODvSpZovMFh1-1" target="F48xH0BiuQwHIjJcF4aA-5" edge="1">
                    <mxGeometry relative="1" as="geometry"/>
                </mxCell>
                <mxCell id="rYx3gDcJODvSpZovMFh1-1" value="ResNet50 Encoder" style="rhombus;whiteSpace=wrap;html=1;fillColor=#f8cecc;strokeColor=#b85450;" parent="1" vertex="1">
                    <mxGeometry x="383.5" y="260" width="80" height="80" as="geometry"/>
                </mxCell>
                <mxCell id="DtOjz9_ZFJN8tTZscV0e-5" value="" style="edgeStyle=none;html=1;dashed=1;dashPattern=8 8;" parent="1" source="rYx3gDcJODvSpZovMFh1-4" target="DtOjz9_ZFJN8tTZscV0e-4" edge="1">
                    <mxGeometry relative="1" as="geometry"/>
                </mxCell>
                <mxCell id="DtOjz9_ZFJN8tTZscV0e-6" value="" style="edgeStyle=none;html=1;dashed=1;dashPattern=8 8;" parent="1" source="rYx3gDcJODvSpZovMFh1-4" target="DtOjz9_ZFJN8tTZscV0e-3" edge="1">
                    <mxGeometry relative="1" as="geometry"/>
                </mxCell>
                <mxCell id="rYx3gDcJODvSpZovMFh1-4" value="&lt;div&gt;(B, out_channels)&lt;/div&gt;" style="rounded=0;whiteSpace=wrap;html=1;fillColor=#dae8fc;strokeColor=#6c8ebf;" parent="1" vertex="1">
                    <mxGeometry x="353.5" y="420" width="140" height="40" as="geometry"/>
                </mxCell>
                <mxCell id="DtOjz9_ZFJN8tTZscV0e-1" value="&lt;font style=&quot;font-size: 9px;&quot;&gt;AveragePooling&lt;/font&gt;" style="text;html=1;align=center;verticalAlign=middle;whiteSpace=wrap;rounded=0;" parent="1" vertex="1">
                    <mxGeometry x="447" y="400" width="40" height="20" as="geometry"/>
                </mxCell>
                <mxCell id="DtOjz9_ZFJN8tTZscV0e-13" value="" style="edgeStyle=none;html=1;" parent="1" source="DtOjz9_ZFJN8tTZscV0e-2" target="DtOjz9_ZFJN8tTZscV0e-7" edge="1">
                    <mxGeometry relative="1" as="geometry"/>
                </mxCell>
                <mxCell id="DtOjz9_ZFJN8tTZscV0e-2" value="&lt;div&gt;(B, n&#39;_tok * embed_dim)&lt;/div&gt;" style="rounded=0;whiteSpace=wrap;html=1;fillColor=#dae8fc;strokeColor=#6c8ebf;" parent="1" vertex="1">
                    <mxGeometry x="358.5" y="600" width="140" height="40" as="geometry"/>
                </mxCell>
                <mxCell id="DtOjz9_ZFJN8tTZscV0e-8" value="" style="edgeStyle=none;html=1;" parent="1" source="DtOjz9_ZFJN8tTZscV0e-3" target="DtOjz9_ZFJN8tTZscV0e-2" edge="1">
                    <mxGeometry relative="1" as="geometry"/>
                </mxCell>
                <mxCell id="DtOjz9_ZFJN8tTZscV0e-3" value="Linear" style="rhombus;whiteSpace=wrap;html=1;fillColor=#f8cecc;strokeColor=#b85450;" parent="1" vertex="1">
                    <mxGeometry x="317" y="490" width="80" height="80" as="geometry"/>
                </mxCell>
                <mxCell id="DtOjz9_ZFJN8tTZscV0e-9" value="" style="edgeStyle=none;html=1;" parent="1" source="DtOjz9_ZFJN8tTZscV0e-4" target="DtOjz9_ZFJN8tTZscV0e-2" edge="1">
                    <mxGeometry relative="1" as="geometry"/>
                </mxCell>
                <mxCell id="DtOjz9_ZFJN8tTZscV0e-4" value="MLP" style="rhombus;whiteSpace=wrap;html=1;fillColor=#f8cecc;strokeColor=#b85450;" parent="1" vertex="1">
                    <mxGeometry x="457" y="490" width="80" height="80" as="geometry"/>
                </mxCell>
                <mxCell id="DtOjz9_ZFJN8tTZscV0e-18" value="" style="edgeStyle=none;html=1;" parent="1" source="DtOjz9_ZFJN8tTZscV0e-7" target="DtOjz9_ZFJN8tTZscV0e-16" edge="1">
                    <mxGeometry relative="1" as="geometry"/>
                </mxCell>
                <mxCell id="DtOjz9_ZFJN8tTZscV0e-19" style="edgeStyle=none;html=1;dashed=1;" parent="1" source="DtOjz9_ZFJN8tTZscV0e-7" target="dal9_SwwfN0fCuHmmjUH-1" edge="1">
                    <mxGeometry relative="1" as="geometry">
                        <mxPoint x="478.4545454545454" y="710" as="targetPoint"/>
                    </mxGeometry>
                </mxCell>
                <mxCell id="DtOjz9_ZFJN8tTZscV0e-7" value="&lt;div&gt;(B, n&#39;_tok, embed_dim)&lt;/div&gt;" style="rounded=0;whiteSpace=wrap;html=1;fillColor=#dae8fc;strokeColor=#6c8ebf;" parent="1" vertex="1">
                    <mxGeometry x="358.5" y="660" width="140" height="30" as="geometry"/>
                </mxCell>
                <mxCell id="DtOjz9_ZFJN8tTZscV0e-10" value="&lt;font style=&quot;font-size: 9px;&quot;&gt;Settings&lt;/font&gt;&lt;div&gt;&lt;font style=&quot;font-size: 9px;&quot;&gt;Choice&lt;/font&gt;&lt;/div&gt;" style="text;html=1;align=center;verticalAlign=middle;whiteSpace=wrap;rounded=0;" parent="1" vertex="1">
                    <mxGeometry x="404" y="465" width="40" height="20" as="geometry"/>
                </mxCell>
                <mxCell id="DtOjz9_ZFJN8tTZscV0e-14" value="&lt;font style=&quot;font-size: 9px;&quot;&gt;Reshape&lt;/font&gt;" style="text;html=1;align=center;verticalAlign=middle;whiteSpace=wrap;rounded=0;" parent="1" vertex="1">
                    <mxGeometry x="437" y="640" width="40" height="20" as="geometry"/>
                </mxCell>
                <mxCell id="DtOjz9_ZFJN8tTZscV0e-16" value="&lt;div&gt;(B, n&#39;_tok, embed_dim)&lt;/div&gt;" style="rounded=0;whiteSpace=wrap;html=1;fillColor=#dae8fc;strokeColor=#6c8ebf;strokeWidth=2;" parent="1" vertex="1">
                    <mxGeometry x="358.5" y="800" width="140" height="40" as="geometry"/>
                </mxCell>
                <mxCell id="DtOjz9_ZFJN8tTZscV0e-20" style="edgeStyle=none;html=1;dashed=1;" parent="1" source="dal9_SwwfN0fCuHmmjUH-1" target="DtOjz9_ZFJN8tTZscV0e-16" edge="1">
                    <mxGeometry relative="1" as="geometry">
                        <mxPoint x="489.55555555555554" y="750" as="sourcePoint"/>
                    </mxGeometry>
                </mxCell>
                <mxCell id="DtOjz9_ZFJN8tTZscV0e-21" value="&lt;font style=&quot;font-size: 9px;&quot;&gt;Add&lt;/font&gt;" style="text;html=1;align=center;verticalAlign=middle;whiteSpace=wrap;rounded=0;" parent="1" vertex="1">
                    <mxGeometry x="423.5" y="770" width="40" height="20" as="geometry"/>
                </mxCell>
                <mxCell id="dal9_SwwfN0fCuHmmjUH-1" value="&lt;span style=&quot;color: rgb(0, 0, 0);&quot;&gt;Positional&lt;/span&gt;&lt;div style=&quot;color: rgb(0, 0, 0);&quot;&gt;Embedding&lt;/div&gt;" style="ellipse;whiteSpace=wrap;html=1;fillColor=#f8cecc;strokeColor=#b85450;" parent="1" vertex="1">
                    <mxGeometry x="457" y="720" width="120" height="50" as="geometry"/>
                </mxCell>
                <mxCell id="uHUR87mdAJU_3pvnbsBC-1" value="" style="rounded=0;whiteSpace=wrap;html=1;fillColor=none;" parent="1" vertex="1">
                    <mxGeometry x="70" y="790" width="200" height="230" as="geometry"/>
                </mxCell>
                <mxCell id="uHUR87mdAJU_3pvnbsBC-2" value="&lt;font style=&quot;font-size: 17px;&quot;&gt;&lt;b&gt;Legend&lt;/b&gt;&lt;/font&gt;" style="text;html=1;align=center;verticalAlign=middle;whiteSpace=wrap;rounded=0;" parent="1" vertex="1">
                    <mxGeometry x="140" y="800" width="60" height="30" as="geometry"/>
                </mxCell>
                <mxCell id="uHUR87mdAJU_3pvnbsBC-3" value="" style="rounded=0;whiteSpace=wrap;html=1;" parent="1" vertex="1">
                    <mxGeometry x="80" y="840" width="60" height="30" as="geometry"/>
                </mxCell>
                <mxCell id="uHUR87mdAJU_3pvnbsBC-4" value="Tensors" style="text;html=1;align=center;verticalAlign=middle;whiteSpace=wrap;rounded=0;" parent="1" vertex="1">
                    <mxGeometry x="140" y="840" width="60" height="30" as="geometry"/>
                </mxCell>
                <mxCell id="uHUR87mdAJU_3pvnbsBC-5" value="" style="rhombus;whiteSpace=wrap;html=1;fillColor=#f8cecc;strokeColor=#b85450;" parent="1" vertex="1">
                    <mxGeometry x="85" y="880" width="50" height="50" as="geometry"/>
                </mxCell>
                <mxCell id="uHUR87mdAJU_3pvnbsBC-6" value="Neural Networks" style="text;html=1;align=center;verticalAlign=middle;whiteSpace=wrap;rounded=0;" parent="1" vertex="1">
                    <mxGeometry x="145" y="890" width="100" height="30" as="geometry"/>
                </mxCell>
                <mxCell id="uHUR87mdAJU_3pvnbsBC-7" value="" style="ellipse;whiteSpace=wrap;html=1;aspect=fixed;fillColor=#f8cecc;strokeColor=#b85450;" parent="1" vertex="1">
                    <mxGeometry x="92.5" y="937.5" width="35" height="35" as="geometry"/>
                </mxCell>
                <mxCell id="uHUR87mdAJU_3pvnbsBC-8" value="Trainable layers" style="text;html=1;align=center;verticalAlign=middle;whiteSpace=wrap;rounded=0;" parent="1" vertex="1">
                    <mxGeometry x="145" y="940" width="100" height="30" as="geometry"/>
                </mxCell>
                <mxCell id="uHUR87mdAJU_3pvnbsBC-9" value="" style="endArrow=classic;html=1;dashed=1;" parent="1" edge="1">
                    <mxGeometry width="50" height="50" relative="1" as="geometry">
                        <mxPoint x="90" y="996" as="sourcePoint"/>
                        <mxPoint x="130" y="996" as="targetPoint"/>
                    </mxGeometry>
                </mxCell>
                <mxCell id="uHUR87mdAJU_3pvnbsBC-10" value="Optional operation" style="text;html=1;align=center;verticalAlign=middle;whiteSpace=wrap;rounded=0;" parent="1" vertex="1">
                    <mxGeometry x="145" y="980" width="105" height="30" as="geometry"/>
                </mxCell>
            </root>
        </mxGraphModel>
    </diagram>
    <diagram id="LUVT4kk_8rQNh-eoiMJ4" name="WeatherProjector">
        <mxGraphModel dx="1233" dy="1369" grid="1" gridSize="10" guides="1" tooltips="1" connect="1" arrows="1" fold="1" page="1" pageScale="1" pageWidth="827" pageHeight="1169" background="#ffffff" math="0" shadow="0">
            <root>
                <mxCell id="0"/>
                <mxCell id="1" parent="0"/>
                <mxCell id="uNjDJuzXT7Nde9NF2Yx6-4" value="" style="edgeStyle=none;html=1;" parent="1" source="Afk0jTazDgfSHef8bxK3-1" target="uNjDJuzXT7Nde9NF2Yx6-3" edge="1">
                    <mxGeometry relative="1" as="geometry"/>
                </mxCell>
                <mxCell id="Afk0jTazDgfSHef8bxK3-1" value="&lt;b&gt;Weather Inputs&lt;/b&gt;&lt;div&gt;(B, features, lat, lon)&lt;/div&gt;" style="rounded=0;whiteSpace=wrap;html=1;fillColor=#dae8fc;strokeColor=#6c8ebf;strokeWidth=2;" parent="1" vertex="1">
                    <mxGeometry x="339" y="180" width="150" height="60" as="geometry"/>
                </mxCell>
                <mxCell id="Afk0jTazDgfSHef8bxK3-2" value="WeatherProjector Vision Encoder" style="text;html=1;align=center;verticalAlign=middle;whiteSpace=wrap;rounded=0;fontSize=22;fontStyle=1;labelBackgroundColor=#E6E6E6;" parent="1" vertex="1">
                    <mxGeometry x="224" y="120" width="380" height="30" as="geometry"/>
                </mxCell>
                <mxCell id="uNjDJuzXT7Nde9NF2Yx6-1" value="&lt;div&gt;(B,&amp;nbsp;&lt;/div&gt;&lt;div&gt;&lt;span style=&quot;color: rgb(0, 0, 0); background-color: transparent;&quot;&gt;num_patches_h * num_patches_w&lt;/span&gt;&lt;span style=&quot;background-color: transparent;&quot;&gt;,&amp;nbsp;&lt;/span&gt;&lt;/div&gt;&lt;div&gt;&lt;span style=&quot;background-color: transparent;&quot;&gt;embed_dim)&lt;/span&gt;&lt;/div&gt;" style="rounded=0;whiteSpace=wrap;html=1;fillColor=#dae8fc;strokeColor=#6c8ebf;strokeWidth=2;" parent="1" vertex="1">
                    <mxGeometry x="316.5" y="520" width="195" height="60" as="geometry"/>
                </mxCell>
                <mxCell id="kh02421XVEJZk3540JJe-3" value="" style="edgeStyle=none;html=1;" parent="1" source="uNjDJuzXT7Nde9NF2Yx6-2" target="kh02421XVEJZk3540JJe-1" edge="1">
                    <mxGeometry relative="1" as="geometry"/>
                </mxCell>
                <mxCell id="uNjDJuzXT7Nde9NF2Yx6-2" value="&lt;div&gt;(B,&amp;nbsp;&lt;/div&gt;&lt;div&gt;num_patches_h * num_patches_w,&amp;nbsp;&lt;/div&gt;&lt;div&gt;patch_size_h * patch_size_w * features)&lt;/div&gt;" style="rounded=0;whiteSpace=wrap;html=1;fillColor=#dae8fc;strokeColor=#6c8ebf;strokeWidth=1;" parent="1" vertex="1">
                    <mxGeometry x="301.5" y="340" width="225" height="60" as="geometry"/>
                </mxCell>
                <mxCell id="UBnpS0wT4pssv67OwHms-2" value="" style="edgeStyle=none;html=1;" parent="1" source="uNjDJuzXT7Nde9NF2Yx6-3" target="uNjDJuzXT7Nde9NF2Yx6-2" edge="1">
                    <mxGeometry relative="1" as="geometry"/>
                </mxCell>
                <mxCell id="uNjDJuzXT7Nde9NF2Yx6-3" value="&lt;div&gt;(B, features, h, w)&lt;/div&gt;" style="rounded=0;whiteSpace=wrap;html=1;fillColor=#dae8fc;strokeColor=#6c8ebf;strokeWidth=1;" parent="1" vertex="1">
                    <mxGeometry x="339" y="260" width="150" height="60" as="geometry"/>
                </mxCell>
                <mxCell id="UBnpS0wT4pssv67OwHms-1" value="&lt;font style=&quot;font-size: 9px;&quot;&gt;Padding&lt;/font&gt;" style="text;html=1;align=center;verticalAlign=middle;whiteSpace=wrap;rounded=0;" parent="1" vertex="1">
                    <mxGeometry x="414" y="240" width="55" height="20" as="geometry"/>
                </mxCell>
                <mxCell id="UBnpS0wT4pssv67OwHms-3" value="&lt;font style=&quot;font-size: 9px;&quot;&gt;Rearrange&lt;/font&gt;" style="text;html=1;align=center;verticalAlign=middle;whiteSpace=wrap;rounded=0;" parent="1" vertex="1">
                    <mxGeometry x="414" y="320" width="55" height="20" as="geometry"/>
                </mxCell>
                <mxCell id="kh02421XVEJZk3540JJe-4" value="" style="edgeStyle=none;html=1;" parent="1" source="kh02421XVEJZk3540JJe-1" target="uNjDJuzXT7Nde9NF2Yx6-1" edge="1">
                    <mxGeometry relative="1" as="geometry"/>
                </mxCell>
                <mxCell id="kh02421XVEJZk3540JJe-1" value="Linear" style="rhombus;whiteSpace=wrap;html=1;fillColor=#f8cecc;strokeColor=#b85450;" parent="1" vertex="1">
                    <mxGeometry x="374" y="420" width="80" height="80" as="geometry"/>
                </mxCell>
                <mxCell id="8dgk-MyEBxlItn4KwSfM-1" value="" style="rounded=0;whiteSpace=wrap;html=1;fillColor=none;" vertex="1" parent="1">
                    <mxGeometry x="40" y="420" width="200" height="160" as="geometry"/>
                </mxCell>
                <mxCell id="8dgk-MyEBxlItn4KwSfM-2" value="&lt;font style=&quot;font-size: 17px;&quot;&gt;&lt;b&gt;Legend&lt;/b&gt;&lt;/font&gt;" style="text;html=1;align=center;verticalAlign=middle;whiteSpace=wrap;rounded=0;" vertex="1" parent="1">
                    <mxGeometry x="110" y="430" width="60" height="30" as="geometry"/>
                </mxCell>
                <mxCell id="8dgk-MyEBxlItn4KwSfM-3" value="" style="rounded=0;whiteSpace=wrap;html=1;" vertex="1" parent="1">
                    <mxGeometry x="50" y="470" width="60" height="30" as="geometry"/>
                </mxCell>
                <mxCell id="8dgk-MyEBxlItn4KwSfM-4" value="Tensors" style="text;html=1;align=center;verticalAlign=middle;whiteSpace=wrap;rounded=0;" vertex="1" parent="1">
                    <mxGeometry x="110" y="470" width="60" height="30" as="geometry"/>
                </mxCell>
                <mxCell id="8dgk-MyEBxlItn4KwSfM-5" value="" style="rhombus;whiteSpace=wrap;html=1;fillColor=#f8cecc;strokeColor=#b85450;" vertex="1" parent="1">
                    <mxGeometry x="55" y="510" width="50" height="50" as="geometry"/>
                </mxCell>
                <mxCell id="8dgk-MyEBxlItn4KwSfM-6" value="Neural Networks" style="text;html=1;align=center;verticalAlign=middle;whiteSpace=wrap;rounded=0;" vertex="1" parent="1">
                    <mxGeometry x="115" y="520" width="100" height="30" as="geometry"/>
                </mxCell>
            </root>
        </mxGraphModel>
    </diagram>
    <diagram id="Kw3DvYpJ674DBGYFl0TX" name="ViT">
        <mxGraphModel dx="1233" dy="1369" grid="1" gridSize="10" guides="1" tooltips="1" connect="1" arrows="1" fold="1" page="1" pageScale="1" pageWidth="827" pageHeight="1169" background="#ffffff" math="0" shadow="0">
            <root>
                <mxCell id="0"/>
                <mxCell id="1" parent="0"/>
                <mxCell id="KYwHRmb5DDy19KY-L9KO-1" value="" style="edgeStyle=none;html=1;" edge="1" parent="1" source="KYwHRmb5DDy19KY-L9KO-2" target="KYwHRmb5DDy19KY-L9KO-8">
                    <mxGeometry relative="1" as="geometry"/>
                </mxCell>
                <mxCell id="KYwHRmb5DDy19KY-L9KO-2" value="&lt;b&gt;Weather Inputs&lt;/b&gt;&lt;div&gt;(B, features, lat, lon)&lt;/div&gt;" style="rounded=0;whiteSpace=wrap;html=1;fillColor=#dae8fc;strokeColor=#6c8ebf;strokeWidth=2;" vertex="1" parent="1">
                    <mxGeometry x="211.5" y="100" width="150" height="60" as="geometry"/>
                </mxCell>
                <mxCell id="KYwHRmb5DDy19KY-L9KO-3" value="ViT Vision Encoder" style="text;html=1;align=center;verticalAlign=middle;whiteSpace=wrap;rounded=0;fontSize=22;fontStyle=1;labelBackgroundColor=#E6E6E6;" vertex="1" parent="1">
                    <mxGeometry x="223" y="40" width="380" height="30" as="geometry"/>
                </mxCell>
                <mxCell id="KYwHRmb5DDy19KY-L9KO-5" value="" style="edgeStyle=none;html=1;entryX=0.5;entryY=0;entryDx=0;entryDy=0;" edge="1" parent="1" source="KYwHRmb5DDy19KY-L9KO-6" target="WVkQ-2ebwUUb6YvPAkk1-1">
                    <mxGeometry relative="1" as="geometry">
                        <mxPoint x="286.5" y="320.0000000000001" as="targetPoint"/>
                    </mxGeometry>
                </mxCell>
                <mxCell id="KYwHRmb5DDy19KY-L9KO-6" value="&lt;div&gt;(B,&amp;nbsp;&lt;span style=&quot;background-color: transparent;&quot;&gt;&lt;b&gt;N&lt;/b&gt;,&amp;nbsp;&lt;/span&gt;&lt;/div&gt;&lt;div&gt;patch_size_h * patch_size_w * features)&lt;/div&gt;" style="rounded=0;whiteSpace=wrap;html=1;fillColor=#dae8fc;strokeColor=#6c8ebf;strokeWidth=1;" vertex="1" parent="1">
                    <mxGeometry x="174" y="260" width="225" height="40" as="geometry"/>
                </mxCell>
                <mxCell id="KYwHRmb5DDy19KY-L9KO-7" value="" style="edgeStyle=none;html=1;" edge="1" parent="1" source="KYwHRmb5DDy19KY-L9KO-8" target="KYwHRmb5DDy19KY-L9KO-6">
                    <mxGeometry relative="1" as="geometry"/>
                </mxCell>
                <mxCell id="KYwHRmb5DDy19KY-L9KO-8" value="&lt;div&gt;(B, features, h, w)&lt;/div&gt;" style="rounded=0;whiteSpace=wrap;html=1;fillColor=#dae8fc;strokeColor=#6c8ebf;strokeWidth=1;" vertex="1" parent="1">
                    <mxGeometry x="211.5" y="180" width="150" height="40" as="geometry"/>
                </mxCell>
                <mxCell id="KYwHRmb5DDy19KY-L9KO-9" value="&lt;font style=&quot;font-size: 9px;&quot;&gt;Padding&lt;/font&gt;" style="text;html=1;align=center;verticalAlign=middle;whiteSpace=wrap;rounded=0;" vertex="1" parent="1">
                    <mxGeometry x="286.5" y="160" width="55" height="20" as="geometry"/>
                </mxCell>
                <mxCell id="KYwHRmb5DDy19KY-L9KO-10" value="&lt;font style=&quot;font-size: 9px;&quot;&gt;Rearrange&lt;/font&gt;" style="text;html=1;align=center;verticalAlign=middle;whiteSpace=wrap;rounded=0;" vertex="1" parent="1">
                    <mxGeometry x="286.5" y="240" width="55" height="20" as="geometry"/>
                </mxCell>
                <mxCell id="KYwHRmb5DDy19KY-L9KO-11" value="" style="edgeStyle=none;html=1;" edge="1" parent="1" source="WVkQ-2ebwUUb6YvPAkk1-1" target="KYwHRmb5DDy19KY-L9KO-21">
                    <mxGeometry relative="1" as="geometry">
                        <mxPoint x="287" y="400" as="sourcePoint"/>
                        <mxPoint x="286.5" y="440" as="targetPoint"/>
                    </mxGeometry>
                </mxCell>
                <mxCell id="KYwHRmb5DDy19KY-L9KO-18" value="" style="edgeStyle=none;html=1;" edge="1" parent="1" source="KYwHRmb5DDy19KY-L9KO-15" target="KYwHRmb5DDy19KY-L9KO-17">
                    <mxGeometry relative="1" as="geometry"/>
                </mxCell>
                <mxCell id="KYwHRmb5DDy19KY-L9KO-15" value="Linear" style="rhombus;whiteSpace=wrap;html=1;fillColor=#f8cecc;strokeColor=#b85450;" vertex="1" parent="1">
                    <mxGeometry x="246.5" y="440" width="80" height="80" as="geometry"/>
                </mxCell>
                <mxCell id="KYwHRmb5DDy19KY-L9KO-20" value="" style="edgeStyle=none;html=1;" edge="1" parent="1" source="KYwHRmb5DDy19KY-L9KO-17" target="WVkQ-2ebwUUb6YvPAkk1-2">
                    <mxGeometry relative="1" as="geometry">
                        <mxPoint x="286.5" y="640" as="targetPoint"/>
                    </mxGeometry>
                </mxCell>
                <mxCell id="KYwHRmb5DDy19KY-L9KO-17" value="&lt;div&gt;(B,&amp;nbsp;&lt;span style=&quot;color: rgb(0, 0, 0); background-color: transparent;&quot;&gt;N&lt;/span&gt;&lt;span style=&quot;background-color: transparent;&quot;&gt;,&amp;nbsp;&lt;/span&gt;&lt;span style=&quot;background-color: transparent;&quot;&gt;embed_dim)&lt;/span&gt;&lt;/div&gt;" style="rounded=0;whiteSpace=wrap;html=1;fillColor=#dae8fc;strokeColor=#6c8ebf;strokeWidth=1;" vertex="1" parent="1">
                    <mxGeometry x="221" y="540" width="131" height="40" as="geometry"/>
                </mxCell>
                <mxCell id="KYwHRmb5DDy19KY-L9KO-24" value="" style="edgeStyle=none;html=1;" edge="1" parent="1" source="WVkQ-2ebwUUb6YvPAkk1-2" target="KYwHRmb5DDy19KY-L9KO-23">
                    <mxGeometry relative="1" as="geometry">
                        <mxPoint x="286.5" y="720" as="sourcePoint"/>
                    </mxGeometry>
                </mxCell>
                <mxCell id="KYwHRmb5DDy19KY-L9KO-22" value="" style="edgeStyle=none;html=1;" edge="1" parent="1" source="KYwHRmb5DDy19KY-L9KO-21" target="KYwHRmb5DDy19KY-L9KO-15">
                    <mxGeometry relative="1" as="geometry"/>
                </mxCell>
                <mxCell id="KYwHRmb5DDy19KY-L9KO-21" value="&lt;div&gt;(B,&amp;nbsp;&lt;span style=&quot;background-color: transparent;&quot;&gt;N,&amp;nbsp;&lt;/span&gt;&lt;/div&gt;&lt;div&gt;patch_size_h * patch_size_w * features)&lt;/div&gt;" style="rounded=0;whiteSpace=wrap;html=1;fillColor=#dae8fc;strokeColor=#6c8ebf;strokeWidth=1;" vertex="1" parent="1">
                    <mxGeometry x="174" y="380" width="225" height="40" as="geometry"/>
                </mxCell>
                <mxCell id="GlxAs1Y-QQO_RtKZHKM6-4" style="edgeStyle=none;html=1;" edge="1" parent="1" source="KYwHRmb5DDy19KY-L9KO-23" target="GlxAs1Y-QQO_RtKZHKM6-3">
                    <mxGeometry relative="1" as="geometry"/>
                </mxCell>
                <mxCell id="KYwHRmb5DDy19KY-L9KO-23" value="&lt;div&gt;(B,&amp;nbsp;&lt;span style=&quot;color: rgb(0, 0, 0); background-color: transparent;&quot;&gt;N&lt;/span&gt;&lt;span style=&quot;background-color: transparent;&quot;&gt;,&amp;nbsp;&lt;/span&gt;&lt;span style=&quot;background-color: transparent;&quot;&gt;embed_dim)&lt;/span&gt;&lt;/div&gt;" style="rounded=0;whiteSpace=wrap;html=1;fillColor=#dae8fc;strokeColor=#6c8ebf;strokeWidth=1;" vertex="1" parent="1">
                    <mxGeometry x="221" y="660" width="131" height="40" as="geometry"/>
                </mxCell>
                <mxCell id="GlxAs1Y-QQO_RtKZHKM6-5" style="edgeStyle=none;html=1;" edge="1" parent="1" source="GlxAs1Y-QQO_RtKZHKM6-1" target="GlxAs1Y-QQO_RtKZHKM6-3">
                    <mxGeometry relative="1" as="geometry"/>
                </mxCell>
                <mxCell id="GlxAs1Y-QQO_RtKZHKM6-1" value="&lt;b&gt;Class tokens&lt;/b&gt;&lt;div&gt;(B, 1, embed_dim)&lt;/div&gt;" style="ellipse;whiteSpace=wrap;html=1;fillColor=#f8cecc;strokeColor=#b85450;" vertex="1" parent="1">
                    <mxGeometry x="424.5" y="650" width="120" height="50" as="geometry"/>
                </mxCell>
                <mxCell id="GlxAs1Y-QQO_RtKZHKM6-9" style="edgeStyle=none;html=1;" edge="1" parent="1" source="GlxAs1Y-QQO_RtKZHKM6-2" target="GlxAs1Y-QQO_RtKZHKM6-7">
                    <mxGeometry relative="1" as="geometry"/>
                </mxCell>
                <mxCell id="GlxAs1Y-QQO_RtKZHKM6-2" value="&lt;div&gt;&lt;b&gt;Positional&amp;nbsp;&lt;span style=&quot;background-color: transparent; color: rgb(0, 0, 0);&quot;&gt;Embedding&lt;/span&gt;&lt;/b&gt;&lt;/div&gt;&lt;div&gt;(1, N + 1, embed_dim)&lt;/div&gt;" style="ellipse;whiteSpace=wrap;html=1;fillColor=#f8cecc;strokeColor=#b85450;" vertex="1" parent="1">
                    <mxGeometry x="544.5" y="710" width="155.5" height="50" as="geometry"/>
                </mxCell>
                <mxCell id="GlxAs1Y-QQO_RtKZHKM6-8" style="edgeStyle=none;html=1;" edge="1" parent="1" source="GlxAs1Y-QQO_RtKZHKM6-3" target="GlxAs1Y-QQO_RtKZHKM6-7">
                    <mxGeometry relative="1" as="geometry"/>
                </mxCell>
                <mxCell id="GlxAs1Y-QQO_RtKZHKM6-3" value="&lt;div&gt;(B,&amp;nbsp;&lt;span style=&quot;color: rgb(0, 0, 0); background-color: transparent;&quot;&gt;N + 1&lt;/span&gt;&lt;span style=&quot;background-color: transparent;&quot;&gt;,&amp;nbsp;&lt;/span&gt;&lt;span style=&quot;background-color: transparent;&quot;&gt;embed_dim)&lt;/span&gt;&lt;/div&gt;" style="rounded=0;whiteSpace=wrap;html=1;fillColor=#dae8fc;strokeColor=#6c8ebf;strokeWidth=1;" vertex="1" parent="1">
                    <mxGeometry x="324.5" y="720" width="145.5" height="40" as="geometry"/>
                </mxCell>
                <mxCell id="GlxAs1Y-QQO_RtKZHKM6-6" value="&lt;font style=&quot;font-size: 9px;&quot;&gt;Cat&lt;/font&gt;" style="text;html=1;align=center;verticalAlign=middle;whiteSpace=wrap;rounded=0;" vertex="1" parent="1">
                    <mxGeometry x="367.5" y="700" width="55" height="20" as="geometry"/>
                </mxCell>
                <mxCell id="GlxAs1Y-QQO_RtKZHKM6-12" style="edgeStyle=none;html=1;" edge="1" parent="1" source="GlxAs1Y-QQO_RtKZHKM6-7" target="GlxAs1Y-QQO_RtKZHKM6-11">
                    <mxGeometry relative="1" as="geometry"/>
                </mxCell>
                <mxCell id="GlxAs1Y-QQO_RtKZHKM6-7" value="&lt;div&gt;(B,&amp;nbsp;&lt;span style=&quot;color: rgb(0, 0, 0); background-color: transparent;&quot;&gt;N + 1&lt;/span&gt;&lt;span style=&quot;background-color: transparent;&quot;&gt;,&amp;nbsp;&lt;/span&gt;&lt;span style=&quot;background-color: transparent;&quot;&gt;embed_dim)&lt;/span&gt;&lt;/div&gt;" style="rounded=0;whiteSpace=wrap;html=1;fillColor=#dae8fc;strokeColor=#6c8ebf;strokeWidth=1;" vertex="1" parent="1">
                    <mxGeometry x="440" y="780" width="148.5" height="40" as="geometry"/>
                </mxCell>
                <mxCell id="GlxAs1Y-QQO_RtKZHKM6-10" value="&lt;font style=&quot;font-size: 9px;&quot;&gt;Sum&lt;/font&gt;" style="text;html=1;align=center;verticalAlign=middle;whiteSpace=wrap;rounded=0;" vertex="1" parent="1">
                    <mxGeometry x="457" y="760" width="55" height="20" as="geometry"/>
                </mxCell>
                <mxCell id="GlxAs1Y-QQO_RtKZHKM6-14" value="" style="edgeStyle=none;html=1;" edge="1" parent="1" source="GlxAs1Y-QQO_RtKZHKM6-11" target="GlxAs1Y-QQO_RtKZHKM6-13">
                    <mxGeometry relative="1" as="geometry">
                        <mxPoint x="510" y="1020" as="targetPoint"/>
                    </mxGeometry>
                </mxCell>
                <mxCell id="GlxAs1Y-QQO_RtKZHKM6-11" value="Transformer" style="rhombus;whiteSpace=wrap;html=1;fillColor=#f8cecc;strokeColor=#b85450;" vertex="1" parent="1">
                    <mxGeometry x="474.25" y="840" width="80" height="80" as="geometry"/>
                </mxCell>
                <mxCell id="GlxAs1Y-QQO_RtKZHKM6-13" value="&lt;div&gt;(B,&amp;nbsp;&lt;span style=&quot;color: rgb(0, 0, 0); background-color: transparent;&quot;&gt;N + 1&lt;/span&gt;&lt;span style=&quot;background-color: transparent;&quot;&gt;,&amp;nbsp;&lt;/span&gt;&lt;span style=&quot;background-color: transparent;&quot;&gt;embed_dim)&lt;/span&gt;&lt;/div&gt;" style="rounded=0;whiteSpace=wrap;html=1;fillColor=#dae8fc;strokeColor=#6c8ebf;strokeWidth=2;" vertex="1" parent="1">
                    <mxGeometry x="440" y="940" width="148.5" height="40" as="geometry"/>
                </mxCell>
                <mxCell id="GlxAs1Y-QQO_RtKZHKM6-16" style="edgeStyle=none;html=1;exitX=0;exitY=0;exitDx=75;exitDy=80;exitPerimeter=0;" edge="1" parent="1" source="GlxAs1Y-QQO_RtKZHKM6-15" target="KYwHRmb5DDy19KY-L9KO-6">
                    <mxGeometry relative="1" as="geometry"/>
                </mxCell>
                <mxCell id="GlxAs1Y-QQO_RtKZHKM6-15" value="&lt;b&gt;N&lt;/b&gt; =&amp;nbsp;&lt;span style=&quot;color: rgb(0, 0, 0);&quot;&gt;num_patches_h * num_patches_w&lt;/span&gt;" style="shape=callout;whiteSpace=wrap;html=1;perimeter=calloutPerimeter;" vertex="1" parent="1">
                    <mxGeometry x="422.5" y="190" width="150" height="80" as="geometry"/>
                </mxCell>
                <mxCell id="g7ZHIWDAuX2X7Oh7CUlT-1" value="" style="rounded=0;whiteSpace=wrap;html=1;fillColor=none;" vertex="1" parent="1">
                    <mxGeometry x="40" y="780" width="200" height="200" as="geometry"/>
                </mxCell>
                <mxCell id="g7ZHIWDAuX2X7Oh7CUlT-2" value="&lt;font style=&quot;font-size: 17px;&quot;&gt;&lt;b&gt;Legend&lt;/b&gt;&lt;/font&gt;" style="text;html=1;align=center;verticalAlign=middle;whiteSpace=wrap;rounded=0;" vertex="1" parent="1">
                    <mxGeometry x="110" y="790" width="60" height="30" as="geometry"/>
                </mxCell>
                <mxCell id="g7ZHIWDAuX2X7Oh7CUlT-3" value="" style="rounded=0;whiteSpace=wrap;html=1;" vertex="1" parent="1">
                    <mxGeometry x="50" y="830" width="60" height="30" as="geometry"/>
                </mxCell>
                <mxCell id="g7ZHIWDAuX2X7Oh7CUlT-4" value="Tensors" style="text;html=1;align=center;verticalAlign=middle;whiteSpace=wrap;rounded=0;" vertex="1" parent="1">
                    <mxGeometry x="110" y="830" width="60" height="30" as="geometry"/>
                </mxCell>
                <mxCell id="g7ZHIWDAuX2X7Oh7CUlT-5" value="" style="rhombus;whiteSpace=wrap;html=1;fillColor=#f8cecc;strokeColor=#b85450;" vertex="1" parent="1">
                    <mxGeometry x="55" y="870" width="50" height="50" as="geometry"/>
                </mxCell>
                <mxCell id="g7ZHIWDAuX2X7Oh7CUlT-6" value="Neural Networks" style="text;html=1;align=center;verticalAlign=middle;whiteSpace=wrap;rounded=0;" vertex="1" parent="1">
                    <mxGeometry x="115" y="880" width="100" height="30" as="geometry"/>
                </mxCell>
                <mxCell id="g7ZHIWDAuX2X7Oh7CUlT-7" value="" style="ellipse;whiteSpace=wrap;html=1;aspect=fixed;fillColor=#f8cecc;strokeColor=#b85450;" vertex="1" parent="1">
                    <mxGeometry x="62.5" y="927.5" width="35" height="35" as="geometry"/>
                </mxCell>
                <mxCell id="g7ZHIWDAuX2X7Oh7CUlT-8" value="Trainable layers" style="text;html=1;align=center;verticalAlign=middle;whiteSpace=wrap;rounded=0;" vertex="1" parent="1">
                    <mxGeometry x="115" y="930" width="100" height="30" as="geometry"/>
                </mxCell>
                <mxCell id="WVkQ-2ebwUUb6YvPAkk1-1" value="Layer Norm" style="ellipse;whiteSpace=wrap;html=1;fillColor=#f8cecc;strokeColor=#b85450;" vertex="1" parent="1">
                    <mxGeometry x="249.75" y="320" width="73.5" height="35" as="geometry"/>
                </mxCell>
                <mxCell id="WVkQ-2ebwUUb6YvPAkk1-2" value="Layer Norm" style="ellipse;whiteSpace=wrap;html=1;fillColor=#f8cecc;strokeColor=#b85450;" vertex="1" parent="1">
                    <mxGeometry x="249.75" y="600" width="73.5" height="35" as="geometry"/>
                </mxCell>
            </root>
        </mxGraphModel>
    </diagram>
</mxfile>